<svg width="28" height="28" viewBox="0 0 28 28" fill="none" xmlns="http://www.w3.org/2000/svg">
<g clip-path="url(#clip0_12515_68098)">
<path d="M12.9102 5.94824C13.462 5.76438 14.0548 5.74178 14.6191 5.88281L14.832 5.93555C15.5426 6.11319 16.1621 6.54979 16.5684 7.15918C16.8906 7.64264 17.0624 8.21098 17.0625 8.79199V12.2559H19.0312C19.5144 12.2559 19.9062 12.6477 19.9062 13.1309V19.6934C19.9062 20.1766 19.5145 20.5684 19.0312 20.5684H8.75C8.26675 20.5684 7.875 20.1766 7.875 19.6934V13.1309C7.8751 12.6477 8.26681 12.2559 8.75 12.2559H10.7188V9.05664C10.7188 8.28499 10.9894 7.53714 11.4834 6.94434L11.5273 6.89258C11.8916 6.45555 12.3704 6.12814 12.9102 5.94824ZM10.0625 13.5684C9.57931 13.5684 9.1876 13.9602 9.1875 14.4434V18.3809C9.1875 18.8641 9.57925 19.2559 10.0625 19.2559H17.7188C18.202 19.2559 18.5938 18.8641 18.5938 18.3809V14.4434C18.5937 13.9602 18.2019 13.5684 17.7188 13.5684H10.0625ZM14.3008 7.15625C13.9786 7.07576 13.6402 7.08844 13.3252 7.19336C13.017 7.29608 12.7431 7.4829 12.5352 7.73242L12.4912 7.78516C12.194 8.14201 12.0313 8.59223 12.0312 9.05664V12.2559H15.75V8.79199C15.7499 8.47002 15.6542 8.15462 15.4756 7.88672C15.2504 7.54925 14.9073 7.30739 14.5137 7.20898L14.3008 7.15625Z" fill="#3E3D48"/>
<path d="M13.3682 0.195801C13.7659 -0.0672913 14.3161 -0.067268 14.7139 0.195801C15.9961 1.04393 18.2123 1.84638 20.7969 2.31104C22.7779 2.66712 24.6251 2.7623 26.0537 2.63037C26.6084 2.57919 27.1238 2.99817 27.124 3.55518V17.1665H27.125V20.6831C27.1249 21.148 26.9138 21.5889 26.5508 21.8794L26.2529 22.1167L26.0859 22.2788C25.183 23.1259 23.8106 24.3016 21.8037 25.4409C18.2478 27.2213 15.198 27.2841 14.3086 27.4702C14.2629 27.4798 14.2169 27.4883 14.1709 27.4946L14.0312 27.5054C14.0287 27.5054 14.0259 27.5054 14.0234 27.5054L13.8662 27.4917L13.71 27.4624C12.8688 27.2827 10.0413 27.2124 6.5166 25.4478C3.881 23.9515 2.47257 22.7534 1.69043 22.0952L1.67969 22.064L1.44922 21.8794C1.08632 21.589 0.875262 21.1479 0.875 20.6831V3.54932C0.875318 2.98756 1.39988 2.56716 1.95898 2.62256C3.39763 2.76509 5.27448 2.67337 7.29004 2.31104C9.873 1.84666 12.0863 1.04381 13.3682 0.195801ZM14.041 1.32275C12.5495 2.29288 10.1677 3.12744 7.52246 3.60303C5.57271 3.95353 3.71179 4.06535 2.1875 3.95557V20.6831C2.18776 20.7492 2.21797 20.8127 2.26953 20.854L2.54785 21.0767C2.7026 21.2372 2.9454 21.4594 3.30566 21.7642C3.59211 22.0074 3.83459 22.1765 4.04102 22.2896C4.79477 22.8488 5.7956 23.5267 7.13281 24.2876C10.4438 25.9384 12.9092 25.9485 13.9844 26.1782C14.0032 26.1822 14.0181 26.1846 14.0303 26.187C14.0332 26.1864 14.0367 26.1867 14.04 26.186C15.1848 25.9464 17.8465 25.9454 21.1865 24.2808C22.0941 23.7635 22.8591 23.2375 23.5059 22.7427C24.0003 22.4432 24.6733 21.8298 25.3398 21.2173C25.4449 21.1207 25.5174 21.0421 25.5674 20.9839L25.7305 20.854C25.7821 20.8126 25.8124 20.7493 25.8125 20.6831V20.6665H25.8115V3.9624C24.3045 4.06128 22.4776 3.9469 20.5645 3.60303C17.9183 3.1273 15.5333 2.29324 14.041 1.32275Z" fill="#3E3D48"/>
</g>
<defs>
<clipPath id="clip0_12515_68098">
<rect width="28" height="28" fill="white"/>
</clipPath>
</defs>
</svg>
