<svg width="140" height="140" viewBox="0 0 140 140" fill="none" xmlns="http://www.w3.org/2000/svg">
<path d="M138.442 66.5496L122.804 50.9144L118.265 59.9988L128.221 69.9547L87.5795 110.596L139.344 7.06728C140.273 5.2094 139.905 2.9715 138.442 1.50269C136.976 0.0368919 134.741 -0.337097 132.877 0.597875L97.1614 18.4528L104.343 25.637L124.255 15.6811L112.031 40.1381L73.3981 1.50269C71.5161 -0.379322 68.4668 -0.379322 66.5848 1.50269L27.9524 40.1381L25.6843 35.593L15.7224 15.6811L35.6342 25.637L42.8154 18.4619L7.09951 0.597875C5.24464 -0.328049 3.00674 0.0308595 1.53491 1.50269C0.0721358 2.96547 -0.295821 5.2094 0.633119 7.06728L52.3974 110.596L11.7563 69.9547L21.7122 59.9988L17.1731 50.9144L1.54095 66.5496C-0.341061 68.4346 -0.341061 71.4838 1.54095 73.3658L66.5848 138.407C66.8412 138.666 67.1187 138.877 67.4142 139.064C67.4806 139.103 67.55 139.131 67.6163 139.17C67.8998 139.33 68.1954 139.459 68.5121 139.562C68.6146 139.595 68.7111 139.625 68.8137 139.652C69.1937 139.749 69.5888 139.821 69.996 139.821C70.4001 139.821 70.7952 139.749 71.1752 139.652C71.2778 139.625 71.3743 139.595 71.4768 139.562C71.7875 139.459 72.0891 139.33 72.3726 139.17C72.439 139.131 72.5083 139.103 72.5747 139.064C72.8642 138.877 73.1477 138.666 73.4071 138.407L138.448 73.3658C140.324 71.4838 140.324 68.4256 138.442 66.5496ZM69.996 124.228L32.4915 49.2255L69.996 11.721L107.497 49.2255L69.996 124.228Z" fill="#805EC9"/>
</svg>
