<svg width="48" height="48" viewBox="0 0 48 48" fill="none" xmlns="http://www.w3.org/2000/svg">
<circle cx="23.999" cy="24" r="24" fill="#DEBFFF"/>
<path d="M6.49902 29.7464H10.1575C10.6598 29.7464 11.0842 29.3737 11.1491 28.8756L13.4884 10.9305C13.6379 9.78407 15.2901 9.76345 15.4681 10.9058L18.5303 30.5547C18.6963 31.6198 20.1979 31.7046 20.4828 30.6651L22.8815 21.9129C23.166 20.8749 24.6646 20.9573 24.8335 22.0202L27.7335 40.2635C27.9178 41.4228 29.6036 41.3711 29.7165 40.2026L32.2589 13.881C32.3748 12.6808 34.123 12.6737 34.2488 13.8729L35.8197 28.8507C35.8731 29.3598 36.3024 29.7464 36.8143 29.7464H40.499" stroke="#805EC9" stroke-width="1.5" stroke-linecap="round"/>
</svg>
