<svg width="48" height="48" viewBox="0 0 48 48" fill="none" xmlns="http://www.w3.org/2000/svg">
<g filter="url(#filter0_ii_9374_49839)">
<circle cx="24" cy="24" r="24" fill="#DEBFFF"/>
</g>
<path d="M28 8.75C28.4142 8.75 28.7499 9.08587 28.75 9.5V10.7002H31C32.1046 10.7002 33 11.5956 33 12.7002V36.7002L32.9893 36.9043C32.8938 37.8458 32.1457 38.594 31.2041 38.6895L31 38.7002H12L11.7959 38.6895C10.8543 38.594 10.1062 37.8458 10.0107 36.9043L10 36.7002V12.7002C10 11.5956 10.8954 10.7002 12 10.7002H14.25V9.5C14.2501 9.08587 14.5858 8.75 15 8.75C15.4142 8.75 15.7499 9.08587 15.75 9.5V10.7002H20.75V9.5C20.75 9.08579 21.0858 8.75 21.5 8.75C21.9142 8.75 22.25 9.08579 22.25 9.5V10.7002H27.25V9.5C27.2501 9.08587 27.5858 8.75 28 8.75ZM12 12.2002C11.7239 12.2002 11.5 12.4241 11.5 12.7002V36.7002C11.5 36.9763 11.7239 37.2002 12 37.2002H31C31.2761 37.2002 31.5 36.9763 31.5 36.7002V12.7002C31.5 12.4241 31.2761 12.2002 31 12.2002H28.75V13.7002C28.7499 14.1143 28.4141 14.4502 28 14.4502C27.5859 14.4502 27.2501 14.1143 27.25 13.7002V12.2002H22.25V13.9004C22.2498 14.3144 21.9141 14.6504 21.5 14.6504C21.0859 14.6504 20.7502 14.3144 20.75 13.9004V12.2002H15.75V13.8994C15.75 14.3136 15.4142 14.6494 15 14.6494C14.5858 14.6494 14.25 14.3136 14.25 13.8994V12.2002H12ZM38.9404 21.4697C39.4926 21.4685 39.941 21.9147 39.9424 22.4668L39.9668 33.4531L39.9551 33.6064C39.932 33.7574 39.8743 33.902 39.7861 34.0283L38.1367 36.3896C37.8898 36.7428 37.3675 36.7434 37.1191 36.3916L35.459 34.04C35.3404 33.8719 35.2768 33.6706 35.2764 33.4648L35.2529 22.4775C35.2518 21.9254 35.6989 21.4759 36.251 21.4746L38.9404 21.4697ZM36.7539 22.9746L36.7744 33.3037L37.623 34.5059L38.4658 33.2979L38.4434 22.9707L36.7539 22.9746ZM29 31.9502C29.4142 31.9502 29.75 32.286 29.75 32.7002C29.75 33.1144 29.4142 33.4502 29 33.4502H16C15.5858 33.4502 15.25 33.1144 15.25 32.7002C15.25 32.286 15.5858 31.9502 16 31.9502H29ZM27 26.9502C27.4142 26.9502 27.75 27.286 27.75 27.7002C27.75 28.1144 27.4142 28.4502 27 28.4502H21C20.5858 28.4502 20.25 28.1144 20.25 27.7002C20.25 27.286 20.5858 26.9502 21 26.9502H27ZM24 21.9502C24.4142 21.9502 24.75 22.286 24.75 22.7002C24.75 23.1144 24.4142 23.4502 24 23.4502H15C14.5858 23.4502 14.25 23.1144 14.25 22.7002C14.25 22.286 14.5858 21.9502 15 21.9502H24ZM38.5254 17.2188C39.302 17.2176 39.9326 17.8453 39.9346 18.6221L39.9365 19.5293C39.9376 20.0815 39.4907 20.5301 38.9385 20.5312L36.25 20.5371C35.6977 20.5383 35.2483 20.0913 35.2471 19.5391L35.2451 18.6328C35.2438 17.8554 35.8732 17.2233 36.6504 17.2217L38.5254 17.2188ZM29 17.9502C29.4142 17.9502 29.75 18.286 29.75 18.7002C29.75 19.1144 29.4142 19.4502 29 19.4502H15C14.5858 19.4502 14.25 19.1144 14.25 18.7002C14.25 18.286 14.5858 17.9502 15 17.9502H29ZM36.7451 18.7227L36.7461 19.0361L38.4346 19.0322V18.7188L36.7451 18.7227Z" fill="#805EC9"/>
<defs>
<filter id="filter0_ii_9374_49839" x="-3" y="-3" width="51" height="51" filterUnits="userSpaceOnUse" color-interpolation-filters="sRGB">
<feFlood flood-opacity="0" result="BackgroundImageFix"/>
<feBlend mode="normal" in="SourceGraphic" in2="BackgroundImageFix" result="shape"/>
<feColorMatrix in="SourceAlpha" type="matrix" values="0 0 0 0 0 0 0 0 0 0 0 0 0 0 0 0 0 0 127 0" result="hardAlpha"/>
<feOffset dx="-3" dy="-6"/>
<feGaussianBlur stdDeviation="1.5"/>
<feComposite in2="hardAlpha" operator="arithmetic" k2="-1" k3="1"/>
<feColorMatrix type="matrix" values="0 0 0 0 1 0 0 0 0 1 0 0 0 0 1 0 0 0 0.15 0"/>
<feBlend mode="normal" in2="shape" result="effect1_innerShadow_9374_49839"/>
<feColorMatrix in="SourceAlpha" type="matrix" values="0 0 0 0 0 0 0 0 0 0 0 0 0 0 0 0 0 0 127 0" result="hardAlpha"/>
<feOffset/>
<feGaussianBlur stdDeviation="5"/>
<feComposite in2="hardAlpha" operator="arithmetic" k2="-1" k3="1"/>
<feColorMatrix type="matrix" values="0 0 0 0 1 0 0 0 0 1 0 0 0 0 1 0 0 0 0.2 0"/>
<feBlend mode="normal" in2="effect1_innerShadow_9374_49839" result="effect2_innerShadow_9374_49839"/>
</filter>
</defs>
</svg>
