<svg width="28" height="28" viewBox="0 0 28 28" fill="none" xmlns="http://www.w3.org/2000/svg">
<g clip-path="url(#clip0_40000012_1241)">
<path d="M13.9984 0.65625C16.0608 0.656361 17.7628 2.37846 17.7631 4.54004C17.7631 6.70182 16.0609 8.42469 13.9984 8.4248C11.9358 8.4248 10.2338 6.70189 10.2338 4.54004C10.234 2.37839 11.9359 0.65625 13.9984 0.65625Z" fill="#3E3D48" stroke="#3E3D48" stroke-width="1.3125"/>
<path d="M13.9984 11.2507C16.0608 11.2508 17.7628 12.9729 17.7631 15.1345C17.7631 17.2962 16.0609 19.0191 13.9984 19.0192C11.9358 19.0192 10.2338 17.2963 10.2338 15.1345C10.234 12.9728 11.9359 11.2507 13.9984 11.2507Z" fill="#3E3D48" stroke="#3E3D48" stroke-width="1.3125"/>
<path d="M20.6301 19.5752C22.6925 19.5754 24.3945 21.2975 24.3948 23.459C24.3948 25.6208 22.6927 27.3437 20.6301 27.3438C18.5675 27.3438 16.8655 25.6209 16.8655 23.459C16.8657 21.2974 18.5676 19.5752 20.6301 19.5752Z" fill="#3E3D48" stroke="#3E3D48" stroke-width="1.3125"/>
<path d="M8.10669 19.5752C10.1691 19.5754 11.8711 21.2975 11.8713 23.459C11.8713 25.6208 10.1692 27.3437 8.10669 27.3438C6.04407 27.3438 4.34204 25.6209 4.34204 23.459C4.34227 21.2974 6.04421 19.5752 8.10669 19.5752Z" fill="#3E3D48" stroke="#3E3D48" stroke-width="1.3125"/>
<path d="M4.4209 8.22329C6.48329 8.2234 8.18531 9.9455 8.18555 12.1071C8.18555 14.2689 6.48343 15.9917 4.4209 15.9918C2.35828 15.9918 0.65625 14.2689 0.65625 12.1071C0.656483 9.94543 2.35842 8.22329 4.4209 8.22329Z" fill="#3E3D48" stroke="#3E3D48" stroke-width="1.3125"/>
<path d="M23.5795 8.22329C25.6419 8.2234 27.3439 9.9455 27.3441 12.1071C27.3441 14.2689 25.642 15.9917 23.5795 15.9918C21.5168 15.9918 19.8148 14.2689 19.8148 12.1071C19.8151 9.94543 21.517 8.22329 23.5795 8.22329Z" fill="#3E3D48" stroke="#3E3D48" stroke-width="1.3125"/>
</g>
<defs>
<clipPath id="clip0_40000012_1241">
<rect width="28" height="28" fill="white"/>
</clipPath>
</defs>
</svg>
