<svg width="28" height="28" viewBox="0 0 28 28" fill="none" xmlns="http://www.w3.org/2000/svg">
<g clip-path="url(#clip0_40000012_1213)">
<path d="M12.1787 1.38184C13.4546 0.0866828 15.4932 0.12923 16.7207 1.47656L26.9258 12.6787C27.1698 12.9469 27.1614 13.3727 26.9062 13.6289C26.6507 13.8851 26.2444 13.8755 26 13.6074L24.5391 12.0029V24.2666C24.5389 26.0786 23.0698 27.5477 21.2578 27.5479H6.8291C5.01718 27.5477 3.548 26.0785 3.54785 24.2666V12.0146L1.96094 13.626C1.70688 13.8836 1.30064 13.8759 1.05469 13.6094C0.809275 13.3426 0.81646 12.9169 1.07031 12.6592L12.1787 1.38184ZM20.7021 11.082C20.5569 10.932 20.335 10.8945 20.1504 10.9902L16.6123 12.8184L17.3242 13.5537L19.2969 12.5342L18.3105 14.5732L18.0859 15.0391L17.7295 14.6709L17.2305 14.1553L16.874 13.7871L16.1631 13.0518L15.8066 12.6836L14.2588 11.082C14.0723 10.8893 13.7694 10.8893 13.583 11.082L12.0352 12.6836L11.6787 13.0518L10.9678 13.7871L10.6113 14.1553L10.1123 14.6709L9.75684 15.0391L9.53125 14.5732L8.54492 12.5342L10.5176 13.5537L11.2285 12.8193L7.69043 10.9902C7.50683 10.8955 7.28546 10.9316 7.13965 11.082C6.99474 11.2318 6.95778 11.4621 7.0498 11.6523L9.04395 15.7744L9.49414 16.7051L12.1777 22.2539L8.15234 18.0918L9.1377 17.0723L8.68848 16.1426L7.13965 17.7432C6.95327 17.9361 6.95338 18.2487 7.13965 18.4414L12.4609 23.9424L13.583 25.1016C13.6084 25.1281 13.6367 25.1498 13.666 25.1689C13.6725 25.1729 13.6791 25.1758 13.6855 25.1797C13.7136 25.1961 13.743 25.2102 13.7744 25.2207C13.7845 25.2241 13.7946 25.2267 13.8047 25.2295C13.8422 25.2393 13.8817 25.2471 13.9219 25.2471C13.9617 25.247 14.0006 25.2393 14.0381 25.2295C14.0482 25.2267 14.0582 25.2241 14.0684 25.2207C14.0991 25.2102 14.1292 25.196 14.1572 25.1797C14.1637 25.1758 14.1703 25.1729 14.1768 25.1689C14.2054 25.1498 14.2341 25.1281 14.2598 25.1016L20.7021 18.4414C20.888 18.2487 20.8886 17.9353 20.7021 17.7432L19.1523 16.1426L18.7031 17.0723L19.6895 18.0918L15.6631 22.2539L18.3477 16.7051L18.7969 15.7744L20.791 11.6523C20.883 11.4621 20.8471 11.2324 20.7021 11.082ZM17.2803 15.6016L17.6367 15.9697L17.4111 16.4346L13.9219 23.6504L10.4307 16.4346L10.2061 15.9697L13.9219 12.1289L17.2803 15.6016Z" fill="#3E3D48"/>
</g>
<defs>
<clipPath id="clip0_40000012_1213">
<rect width="28" height="28" fill="white"/>
</clipPath>
</defs>
</svg>
