<svg width="28" height="28" viewBox="0 0 28 28" fill="none" xmlns="http://www.w3.org/2000/svg">
<g clip-path="url(#clip0_40000012_1210)">
<path d="M12.1527 1.80493C13.4508 0.530224 15.5235 0.571386 16.7719 1.89673L26.9496 12.7043C27.1979 12.9683 27.188 13.3868 26.9281 13.6389C26.6681 13.8907 26.2567 13.881 26.0082 13.6174L24.5541 12.0725V23.8391C24.5539 25.6511 23.0849 27.1203 21.2728 27.1204H6.84119C5.02911 27.1204 3.56011 25.6511 3.55994 23.8391V12.0833L1.97986 13.636C1.72135 13.8896 1.30811 13.8827 1.05798 13.6204C0.80825 13.358 0.815472 12.9396 1.07361 12.6858L12.1527 1.80493ZM15.8304 2.81079C15.0814 2.01556 13.8378 1.99031 13.059 2.75513L4.87244 10.7952V23.8391C4.87261 24.9263 5.75398 25.8079 6.84119 25.8079H21.2728C22.36 25.8078 23.2414 24.9263 23.2416 23.8391V10.7141C23.2416 10.7036 23.244 10.6932 23.2445 10.6829L15.8304 2.81079Z" fill="#3E3D48"/>
<mask id="mask0_40000012_1210" style="mask-type:luminance" maskUnits="userSpaceOnUse" x="7" y="10" width="14" height="15">
<path d="M21 10.5003H7V24.4238H21V10.5003Z" fill="white"/>
</mask>
<g mask="url(#mask0_40000012_1210)">
<mask id="mask1_40000012_1210" style="mask-type:luminance" maskUnits="userSpaceOnUse" x="7" y="10" width="14" height="15">
<path d="M7.0791 10.5155H20.9261V24.3631H7.0791V10.5155Z" fill="white"/>
</mask>
<g mask="url(#mask1_40000012_1210)">
<path d="M20.784 17.1091L19.2346 15.5599L18.7848 16.46L19.7713 17.4464L15.7444 21.4733L18.4289 16.1041L18.8787 15.204L20.8734 11.2154C20.9654 11.0313 20.929 10.8095 20.784 10.664C20.6388 10.5188 20.4174 10.4817 20.2327 10.5743L16.6938 12.3435L17.4054 13.0553L19.3783 12.0688L18.3918 14.0418L18.1671 14.4921L17.8112 14.1362L17.3115 13.6368L16.9556 13.2809L16.2441 12.5691L15.8882 12.2132L14.3393 10.664C14.1528 10.4775 13.8507 10.4775 13.6642 10.664L12.1153 12.2132L11.7594 12.5691L11.0479 13.2809L10.692 13.6368L10.1923 14.1362L9.83639 14.4921L9.61166 14.0418L8.6246 12.0688L10.5975 13.0553L11.3091 12.3444L7.77022 10.5743C7.58643 10.4826 7.36469 10.5182 7.21886 10.664C7.07392 10.8089 7.03747 11.0313 7.12951 11.2154L9.12426 15.204L9.57401 16.1041L12.2585 21.4733L8.23163 17.4464L9.21809 16.46L8.76834 15.5599L7.21946 17.1091C7.03298 17.2958 7.03298 17.598 7.21946 17.7844L12.5415 23.1064L13.6642 24.2289C13.6896 24.2546 13.7171 24.2755 13.7464 24.294C13.753 24.2979 13.7598 24.3006 13.7664 24.3045C13.7945 24.3203 13.8238 24.3332 13.8552 24.3433C13.8653 24.3466 13.8749 24.3496 13.8851 24.3523C13.9227 24.3619 13.9619 24.369 14.0022 24.369C14.0422 24.369 14.0814 24.3619 14.119 24.3523C14.1292 24.3496 14.1388 24.3466 14.1489 24.3433C14.1797 24.3332 14.2096 24.3203 14.2377 24.3045C14.2443 24.3006 14.2511 24.2979 14.2577 24.294C14.2864 24.2755 14.3145 24.2546 14.3402 24.2289L20.7846 17.7844C20.9705 17.598 20.9705 17.2949 20.784 17.1091ZM14.0022 22.824L10.5112 15.8429L10.2861 15.3925L14.0022 11.6765L17.362 15.0366L17.718 15.3925L17.4929 15.8423L14.0022 22.824Z" fill="#3E3D48"/>
</g>
</g>
</g>
<defs>
<clipPath id="clip0_40000012_1210">
<rect width="28" height="28" fill="white"/>
</clipPath>
</defs>
</svg>
