<svg width="28" height="28" viewBox="0 0 28 28" fill="none" xmlns="http://www.w3.org/2000/svg">
<path d="M15.0096 4.52045C17.5884 1.78359 21.7675 1.34004 24.577 3.80268C27.7967 6.62919 27.9654 11.7027 25.079 14.7665L15.1591 25.3027C14.5183 25.9827 13.4777 25.9825 12.8368 25.3027L2.91589 14.7665C0.0346011 11.7027 0.204041 6.62919 3.42371 3.80268C6.23322 1.3403 10.4165 1.78368 12.9901 4.52045L13.9999 5.59077L15.0096 4.52045ZM10.4999 7.87495C8.08365 7.87495 6.12491 9.83373 6.12488 12.2499C6.12488 14.6662 8.08363 16.6249 10.4999 16.6249C11.3912 16.6249 12.2196 16.3571 12.911 15.8994L16.0067 18.9941C16.3485 19.3352 16.9025 19.3356 17.244 18.9941C17.5854 18.6526 17.5851 18.0985 17.244 17.7568L14.1493 14.6611C14.607 13.9696 14.8749 13.1413 14.8749 12.2499C14.8748 9.83381 12.916 7.87508 10.4999 7.87495ZM10.4999 9.18745C12.1911 9.18758 13.5623 10.5587 13.5624 12.2499C13.5624 13.9412 12.1911 15.3123 10.4999 15.3124C8.80851 15.3124 7.43738 13.9413 7.43738 12.2499C7.43741 10.5586 8.80852 9.18745 10.4999 9.18745Z" fill="#3E3D48"/>
</svg>
