<svg width="28" height="28" viewBox="0 0 28 28" fill="none" xmlns="http://www.w3.org/2000/svg">
<path d="M15.4883 4.96973C17.8559 2.45738 21.6335 2.09586 24.1445 4.29688V4.2959C27.0797 6.87279 27.238 11.518 24.6016 14.3164L14.6816 24.8525C14.2999 25.2577 13.6962 25.2576 13.3145 24.8525L3.39355 14.3164H3.39453C0.762864 11.518 0.920663 6.87292 3.85547 4.2959L3.85645 4.29688C6.36785 2.09553 10.1507 2.45793 12.5127 4.96973V4.9707L13.5234 6.04102L14 6.54688L14.4775 6.04102L15.4873 4.9707L15.4883 4.96973Z" stroke="#3E3D48" stroke-width="1.3125"/>
<path d="M10.5 7.875C12.9162 7.875 14.875 9.83375 14.875 12.25C14.875 13.1414 14.6072 13.9697 14.1494 14.6611L17.2441 17.7568C17.5854 18.0986 17.5857 18.6526 17.2441 18.9941C16.9026 19.3357 16.3486 19.3354 16.0068 18.9941L12.9111 15.8994C12.2197 16.3572 11.3914 16.625 10.5 16.625C8.08375 16.625 6.125 14.6662 6.125 12.25C6.125 9.83375 8.08375 7.875 10.5 7.875ZM10.5 9.1875C8.80863 9.1875 7.4375 10.5586 7.4375 12.25C7.4375 13.9414 8.80863 15.3125 10.5 15.3125C12.1914 15.3125 13.5625 13.9414 13.5625 12.25C13.5625 10.5586 12.1914 9.1875 10.5 9.1875Z" fill="#3E3D48"/>
</svg>
