<svg width="28" height="28" viewBox="0 0 28 28" fill="none" xmlns="http://www.w3.org/2000/svg">
<path d="M16.625 0.65625C16.9874 0.65625 17.2812 0.950137 17.2812 1.3125V2.3623H21V26.8623H0.875V4.1123C0.875198 3.14598 1.65862 2.3623 2.625 2.3623H4.59375V1.3125C4.59384 0.950137 4.88762 0.65625 5.25 0.65625C5.61238 0.65625 5.90616 0.950137 5.90625 1.3125V2.3623H10.2812V1.3125C10.2812 0.950063 10.5751 0.65625 10.9375 0.65625C11.2999 0.65625 11.5938 0.950063 11.5938 1.3125V2.3623H15.9688V1.3125C15.9688 0.950137 16.2626 0.65625 16.625 0.65625ZM2.625 3.6748C2.3835 3.6748 2.1877 3.87085 2.1875 4.1123V25.5498H19.6875V3.6748H17.2812V4.9873C17.2812 5.34974 16.9874 5.64355 16.625 5.64355C16.2626 5.64355 15.9688 5.34974 15.9688 4.9873V3.6748H11.5938V5.16211C11.5938 5.52455 11.2999 5.81836 10.9375 5.81836C10.5751 5.81836 10.2812 5.52455 10.2812 5.16211V3.6748H5.90625V5.16211C5.90625 5.52455 5.61244 5.81836 5.25 5.81836C4.88756 5.81836 4.59375 5.52455 4.59375 5.16211V3.6748H2.625ZM26.1982 11.7861C26.6815 11.7851 27.0742 12.1759 27.0752 12.6592L27.0967 22.2715L27.0859 22.4053C27.0658 22.5372 27.0156 22.664 26.9385 22.7744L25.4951 24.8408C25.2792 25.1501 24.822 25.1506 24.6045 24.8428L23.1514 22.7852C23.0477 22.6381 22.9916 22.4621 22.9912 22.2822L22.9717 12.667C22.971 12.1842 23.3619 11.7923 23.8447 11.791L26.1982 11.7861ZM24.2842 13.1016L24.3027 22.1416L25.0449 23.1924L25.7822 22.1367L25.7637 13.0986L24.2842 13.1016ZM17.5 20.9561C17.8623 20.9561 18.1561 21.25 18.1562 21.6123C18.1562 21.9747 17.8624 22.2686 17.5 22.2686H6.125C5.76256 22.2686 5.46875 21.9747 5.46875 21.6123C5.46895 21.25 5.76269 20.9561 6.125 20.9561H17.5ZM15.8818 16.5947C16.1809 16.6558 16.4061 16.9202 16.4062 17.2373C16.4062 17.5545 16.181 17.8188 15.8818 17.8799L15.75 17.8936H10.5C10.1376 17.8936 9.84375 17.5997 9.84375 17.2373C9.84395 16.875 10.1377 16.5811 10.5 16.5811H15.75L15.8818 16.5947ZM13.125 12.2061C13.4873 12.2061 13.7811 12.5 13.7812 12.8623C13.7812 13.2247 13.4874 13.5186 13.125 13.5186H5.25C4.88756 13.5186 4.59375 13.2247 4.59375 12.8623C4.59395 12.5 4.88769 12.2061 5.25 12.2061H13.125ZM25.834 8.06543C26.5138 8.06421 27.0667 8.61501 27.0684 9.29492L27.0693 10.0889L27.0654 10.1777C27.0216 10.6191 26.6494 10.9639 26.1963 10.9648L23.8438 10.9707C23.3605 10.9717 22.9669 10.5799 22.9658 10.0967L22.9639 9.30371C22.9627 8.62364 23.5135 8.07102 24.1934 8.06934L25.834 8.06543ZM17.5 8.70605C17.8623 8.70605 18.1561 9.00004 18.1562 9.3623C18.1562 9.72474 17.8624 10.0186 17.5 10.0186H5.25C4.88756 10.0186 4.59375 9.72474 4.59375 9.3623C4.59395 9.00004 4.88769 8.70605 5.25 8.70605H17.5ZM24.2773 9.38184V9.65625L25.7559 9.6543L25.7549 9.37891L24.2773 9.38184Z" fill="#3E3D48"/>
</svg>
