<svg width="28" height="28" viewBox="0 0 28 28" fill="none" xmlns="http://www.w3.org/2000/svg">
<g clip-path="url(#clip0_40000012_1220)">
<path d="M5.25 1.75V5.59991" stroke="#3E3D48" stroke-width="1.3125" stroke-linecap="round"/>
<path d="M16.625 1.75V5.425" stroke="#3E3D48" stroke-width="1.3125" stroke-linecap="round"/>
<path d="M10.9375 1.75V3.85V5.6" stroke="#3E3D48" stroke-width="1.3125" stroke-linecap="round"/>
<path d="M23.6281 13.1035C23.6279 12.9828 23.7258 12.8844 23.8465 12.8841L26.1999 12.8792C26.3207 12.8789 26.419 12.9768 26.4192 13.0976L26.4395 22.7112C26.4395 22.7559 26.426 22.7996 26.4004 22.8363L25.0476 24.7706L23.6874 22.8441C23.6614 22.8073 23.6478 22.7628 23.6477 22.7178L23.6281 13.1035ZM23.621 9.74061C23.6204 9.42253 23.8781 9.16417 24.1957 9.16349L25.835 9.16003C26.1527 9.15944 26.4113 9.41605 26.4121 9.73334L26.4138 10.5274C26.4139 10.6481 26.3161 10.7466 26.1954 10.7468L23.842 10.7518C23.7213 10.752 23.623 10.6541 23.6227 10.5333L23.621 9.74061Z" fill="#3E3D48" stroke="#3E3D48" stroke-width="1.3125"/>
<path d="M19.25 2.80017C20.2165 2.80017 21 3.58367 21 4.55017V25.5502C21 26.5167 20.2165 27.3002 19.25 27.3002H2.625C1.6585 27.3002 0.875 26.5167 0.875 25.5502V4.55017C0.875 3.58367 1.6585 2.80017 2.625 2.80017H19.25ZM6.125 21.3939C5.76256 21.3939 5.46875 21.6877 5.46875 22.0502C5.46875 22.4126 5.76256 22.7064 6.125 22.7064H17.5C17.8624 22.7064 18.1562 22.4126 18.1562 22.0502C18.1562 21.6877 17.8624 21.3939 17.5 21.3939H6.125ZM10.5 17.0189C10.1376 17.0189 9.84375 17.3127 9.84375 17.6752C9.84375 18.0376 10.1376 18.3314 10.5 18.3314H15.75C16.1124 18.3314 16.4062 18.0376 16.4062 17.6752C16.4062 17.3127 16.1124 17.0189 15.75 17.0189H10.5ZM5.25 12.6439C4.88756 12.6439 4.59375 12.9377 4.59375 13.3002C4.59375 13.6626 4.88756 13.9564 5.25 13.9564H13.125C13.4874 13.9564 13.7812 13.6626 13.7812 13.3002C13.7812 12.9377 13.4874 12.6439 13.125 12.6439H5.25ZM5.25 9.14392C4.88756 9.14392 4.59375 9.43773 4.59375 9.80017C4.59375 10.1626 4.88756 10.4564 5.25 10.4564H17.5C17.8624 10.4564 18.1562 10.1626 18.1562 9.80017C18.1562 9.43773 17.8624 9.14392 17.5 9.14392H5.25Z" fill="#3E3D48"/>
</g>
<defs>
<clipPath id="clip0_40000012_1220">
<rect width="28" height="28" fill="white"/>
</clipPath>
</defs>
</svg>
