<svg width="28" height="28" viewBox="0 0 28 28" fill="none" xmlns="http://www.w3.org/2000/svg">
<g clip-path="url(#clip0_40000012_1227)">
<path d="M14 0C21.732 0 28 6.26801 28 14C28 21.732 21.732 28 14 28C6.26801 28 0 21.732 0 14C0 6.26801 6.26801 0 14 0ZM9.26172 5.95215C8.98949 4.20243 6.45899 4.23429 6.23047 5.99023L4.78809 17.0732C4.7739 17.1822 4.68117 17.2637 4.57129 17.2637H3.0625C2.70011 17.2637 2.40633 17.5575 2.40625 17.9199C2.40625 18.2824 2.70006 18.5762 3.0625 18.5762H4.57129C5.34057 18.5762 5.99057 18.005 6.08984 17.2422L7.53223 6.15918C7.5436 6.07198 7.57588 6.0359 7.59961 6.0166C7.63094 5.99117 7.68193 5.96959 7.74609 5.96875C7.81042 5.96795 7.86256 5.98799 7.89453 6.0127C7.91874 6.03141 7.95132 6.06737 7.96484 6.1543L9.76953 17.751C10.0234 19.3825 12.324 19.5125 12.7598 17.9199L13.9834 13.4473C14.004 13.3724 14.0372 13.3394 14.0645 13.3213C14.098 13.2991 14.1478 13.2839 14.2061 13.2871C14.2645 13.2903 14.3128 13.3111 14.3438 13.3369C14.3688 13.3579 14.3979 13.3943 14.4102 13.4707L16.0723 23.9463C16.3541 25.7221 18.9368 25.6432 19.1094 23.8535L20.5684 8.72363C20.5774 8.62935 20.6106 8.59261 20.6328 8.57422C20.6638 8.54865 20.7171 8.52567 20.7852 8.52539C20.8532 8.52516 20.9063 8.5479 20.9375 8.57324C20.9599 8.59143 20.993 8.62761 21.0029 8.72168L21.8916 17.2041C21.9732 17.9836 22.6303 18.5759 23.4141 18.5762H24.9375C25.2999 18.5762 25.5938 18.2824 25.5938 17.9199C25.5937 17.5575 25.2999 17.2637 24.9375 17.2637H23.4141C23.3023 17.2634 23.2089 17.1786 23.1973 17.0674L22.3086 8.58496C22.1161 6.74851 19.439 6.75964 19.2617 8.59766L17.8027 23.7275C17.7941 23.8175 17.7621 23.8545 17.7393 23.874C17.7086 23.9002 17.6574 23.9237 17.5918 23.9258C17.5261 23.9278 17.4727 23.9081 17.4404 23.8838C17.4165 23.8657 17.3833 23.8302 17.3691 23.7412L15.7061 13.2656C15.4477 11.6374 13.1519 11.5114 12.7168 13.1016L11.4932 17.5732C11.4725 17.6486 11.4394 17.6821 11.4121 17.7002C11.3786 17.7224 11.3288 17.7376 11.2705 17.7344C11.212 17.7311 11.1637 17.7095 11.1328 17.6836C11.1079 17.6625 11.0784 17.6264 11.0664 17.5498L9.26172 5.95215Z" fill="#3E3D48"/>
</g>
<defs>
<clipPath id="clip0_40000012_1227">
<rect width="28" height="28" fill="white"/>
</clipPath>
</defs>
</svg>
