<svg width="28" height="28" viewBox="0 0 28 28" fill="none" xmlns="http://www.w3.org/2000/svg">
<g clip-path="url(#clip0_40000012_1224)">
<path d="M1.75 16.6821H4.25132C4.69057 16.6821 5.06174 16.3564 5.11888 15.9209L6.64706 4.27418C6.77855 3.27208 8.22243 3.25394 8.37905 4.25241L10.3087 16.5537C10.4546 17.4842 11.7661 17.5588 12.0166 16.6508L13.3664 11.7579C13.6165 10.8513 14.9253 10.9237 15.0739 11.8523L16.8616 23.0255C17.0237 24.039 18.4972 23.9934 18.5965 22.9719L20.1649 6.83926C20.267 5.78985 21.7953 5.78353 21.906 6.83206L22.8632 15.8989C22.9102 16.3441 23.2856 16.6821 23.7333 16.6821H26.25" stroke="#3E3D48" stroke-width="1.3125" stroke-linecap="round"/>
</g>
<defs>
<clipPath id="clip0_40000012_1224">
<rect width="28" height="28" fill="white"/>
</clipPath>
</defs>
</svg>
